<svg width="21" height="20" viewBox="0 0 21 20" fill="none" xmlns="http://www.w3.org/2000/svg">
<path d="M15.4983 10.4782C15.4905 9.04439 16.1391 7.96216 17.4518 7.16514C16.7173 6.11417 15.6077 5.53594 14.1426 5.42264C12.7556 5.31324 11.2397 6.23138 10.685 6.23138C10.0989 6.23138 8.75492 5.46171 7.70004 5.46171C5.51995 5.49687 3.20312 7.2003 3.20312 10.6658C3.20312 11.6894 3.39066 12.7469 3.76573 13.8382C4.26582 15.2721 6.07083 18.7883 7.95399 18.7297C8.93854 18.7063 9.63398 18.0304 10.9155 18.0304C12.1579 18.0304 12.8025 18.7297 13.9004 18.7297C15.7992 18.7024 17.4323 15.5065 17.9089 14.0687C15.3616 12.8693 15.4983 10.5525 15.4983 10.4782ZM13.287 4.06301C14.3536 2.79716 14.2559 1.64461 14.2247 1.23047C13.2831 1.28517 12.193 1.87121 11.5718 2.594C10.8881 3.36758 10.4857 4.32478 10.5717 5.4031C11.5914 5.48124 12.5212 4.95771 13.287 4.06301Z" fill="white"/>
</svg>
