<svg width="21" height="20" viewBox="0 0 21 20" fill="none" xmlns="http://www.w3.org/2000/svg">
<path fill-rule="evenodd" clip-rule="evenodd" d="M19.3229 10.1945C19.3236 9.60229 19.2719 9.01121 19.1683 8.42839H11.1574V11.7671H15.734C15.639 12.2947 15.4397 12.7972 15.1481 13.2444C14.8565 13.6916 14.4786 14.0742 14.0373 14.3691V16.5353H16.7851C18.3928 15.0326 19.3205 12.8193 19.3205 10.1929L19.3229 10.1945Z" fill="#3E82F1"/>
<path fill-rule="evenodd" clip-rule="evenodd" d="M11.1598 18.6291C13.4557 18.6291 15.3807 17.8566 16.7875 16.5385L14.0397 14.3724C13.2779 14.8903 12.3037 15.1969 11.1598 15.1969C8.94477 15.1969 7.07022 13.678 6.40211 11.6378H3.56063V13.8747C4.26846 15.3044 5.354 16.5062 6.69594 17.3458C8.03789 18.1854 9.5834 18.6297 11.1598 18.6291Z" fill="#32A753"/>
<path fill-rule="evenodd" clip-rule="evenodd" d="M6.40211 11.6378C6.04642 10.5745 6.04642 9.42177 6.40211 8.35847V6.12155H3.56063C2.96593 7.32465 2.65625 8.65209 2.65625 9.99814C2.65625 11.3442 2.96593 12.6716 3.56063 13.8747L6.40211 11.6378Z" fill="#F9BB00"/>
<path fill-rule="evenodd" clip-rule="evenodd" d="M11.1598 4.7994C12.4087 4.7994 13.5294 5.23524 14.4106 6.09065L16.8491 3.61468C15.3767 2.22179 13.4517 1.36719 11.1614 1.36719C9.585 1.36659 8.0395 1.8109 6.69755 2.65049C5.3556 3.49007 4.27007 4.69185 3.56224 6.12155L6.40371 8.35847C7.07182 6.31833 8.94637 4.7994 11.1614 4.7994H11.1598Z" fill="#E74133"/>
</svg>
